<svg xmlns="http://www.w3.org/2000/svg" width="640" height="360" viewBox="0 0 640 360">
  <rect width="640" height="360" fill="#0d1117"/>
  <rect x="0" y="0" width="640" height="22" fill="#161b22"/>
  <rect x="0" y="338" width="640" height="22" fill="#161b22"/>
  <rect x="12" y="6" width="10" height="10" rx="2" fill="#30363d"/><rect x="12" y="344" width="10" height="10" rx="2" fill="#30363d"/><rect x="46" y="6" width="10" height="10" rx="2" fill="#30363d"/><rect x="46" y="344" width="10" height="10" rx="2" fill="#30363d"/><rect x="80" y="6" width="10" height="10" rx="2" fill="#30363d"/><rect x="80" y="344" width="10" height="10" rx="2" fill="#30363d"/><rect x="114" y="6" width="10" height="10" rx="2" fill="#30363d"/><rect x="114" y="344" width="10" height="10" rx="2" fill="#30363d"/><rect x="148" y="6" width="10" height="10" rx="2" fill="#30363d"/><rect x="148" y="344" width="10" height="10" rx="2" fill="#30363d"/><rect x="182" y="6" width="10" height="10" rx="2" fill="#30363d"/><rect x="182" y="344" width="10" height="10" rx="2" fill="#30363d"/><rect x="216" y="6" width="10" height="10" rx="2" fill="#30363d"/><rect x="216" y="344" width="10" height="10" rx="2" fill="#30363d"/><rect x="250" y="6" width="10" height="10" rx="2" fill="#30363d"/><rect x="250" y="344" width="10" height="10" rx="2" fill="#30363d"/><rect x="284" y="6" width="10" height="10" rx="2" fill="#30363d"/><rect x="284" y="344" width="10" height="10" rx="2" fill="#30363d"/><rect x="318" y="6" width="10" height="10" rx="2" fill="#30363d"/><rect x="318" y="344" width="10" height="10" rx="2" fill="#30363d"/><rect x="352" y="6" width="10" height="10" rx="2" fill="#30363d"/><rect x="352" y="344" width="10" height="10" rx="2" fill="#30363d"/><rect x="386" y="6" width="10" height="10" rx="2" fill="#30363d"/><rect x="386" y="344" width="10" height="10" rx="2" fill="#30363d"/><rect x="420" y="6" width="10" height="10" rx="2" fill="#30363d"/><rect x="420" y="344" width="10" height="10" rx="2" fill="#30363d"/><rect x="454" y="6" width="10" height="10" rx="2" fill="#30363d"/><rect x="454" y="344" width="10" height="10" rx="2" fill="#30363d"/><rect x="488" y="6" width="10" height="10" rx="2" fill="#30363d"/><rect x="488" y="344" width="10" height="10" rx="2" fill="#30363d"/><rect x="522" y="6" width="10" height="10" rx="2" fill="#30363d"/><rect x="522" y="344" width="10" height="10" rx="2" fill="#30363d"/><rect x="556" y="6" width="10" height="10" rx="2" fill="#30363d"/><rect x="556" y="344" width="10" height="10" rx="2" fill="#30363d"/><rect x="590" y="6" width="10" height="10" rx="2" fill="#30363d"/><rect x="590" y="344" width="10" height="10" rx="2" fill="#30363d"/><rect x="624" y="6" width="10" height="10" rx="2" fill="#30363d"/><rect x="624" y="344" width="10" height="10" rx="2" fill="#30363d"/>
  <circle cx="320" cy="180" r="52" fill="rgba(88,166,255,0.14)" stroke="#58a6ff" stroke-width="2"/>
  <path d="M306 156 L348 180 L306 204 Z" fill="#58a6ff"/>
  <text x="320" y="270" text-anchor="middle" font-family="monospace" font-size="22" font-weight="700" fill="#c9d1d9">여행 브이로그</text>
  <text x="320" y="298" text-anchor="middle" font-family="monospace" font-size="13" fill="#8b949e">trip-vlog.mp4 · 준비중</text>
</svg>